<svg xmlns="http://www.w3.org/2000/svg" version="1.1" xmlns:xlink="http://www.w3.org/1999/xlink" xmlns:svgjs="http://svgjs.dev/svgjs" width="2000" height="1247" viewBox="0 0 2000 1247"><g transform="matrix(1,0,0,1,-1.2121212121212466,0.504858299595071)"><svg viewBox="0 0 396 247" data-background-color="#ffffff" preserveAspectRatio="xMidYMid meet" height="1247" width="2000" xmlns="http://www.w3.org/2000/svg" xmlns:xlink="http://www.w3.org/1999/xlink"><g id="tight-bounds" transform="matrix(1,0,0,1,0.2400000000000091,-0.09999999999999432)"><svg viewBox="0 0 395.52 247.2" height="247.2" width="395.52"><g><svg></svg></g><g><svg viewBox="0 0 395.52 247.2" height="247.2" width="395.52"><g transform="matrix(1,0,0,1,83.7284057142857,47.215199999999996)"><svg viewBox="0 0 228.06318857142858 152.7696" height="152.7696" width="228.06318857142858"><g><svg viewBox="0 0 228.06318857142858 152.7696" height="152.7696" width="228.06318857142858"><g><svg viewBox="0 0 228.06318857142858 152.7696" height="152.7696" width="228.06318857142858"><g><svg viewBox="0 0 228.06318857142858 152.7696" height="152.7696" width="228.06318857142858"><g id="textblocktransform"><svg viewBox="0 0 228.06318857142858 152.7696" height="152.7696" width="228.06318857142858" id="textblock"><g><svg viewBox="0 0 228.06318857142858 152.7696" height="152.7696" width="228.06318857142858"><g transform="matrix(1,0,0,1,0,0)"><svg width="228.06318857142858" viewBox="0.4 -35 52.25 35" height="152.7696" data-palette-color="#10b981"><path d="M23-35L27.85-35 16.75 0 11.5 0 0.4-35 5.3-35 14.15-5.85 23-35ZM32 0L32-35 41-35Q46.5-35 49.57-32.1 52.65-29.2 52.65-23.65L52.65-23.65Q52.65-18.1 49.57-15.18 46.5-12.25 41-12.25L41-12.25 36.6-12.25 36.6 0 32 0ZM36.6-16.45L40.6-16.45Q47.9-16.45 47.9-23.65L47.9-23.65Q47.9-30.85 40.6-30.85L40.6-30.85 36.6-30.85 36.6-16.45Z" opacity="1" transform="matrix(1,0,0,1,0,0)" fill="#10b981" class="wordmark-text-0" data-fill-palette-color="primary" id="text-0"></path></svg></g></svg></g></svg></g></svg></g></svg></g></svg></g></svg></g><g><path d="M0 123.6c0-68.262 55.338-123.6 123.6-123.6 30.402 0 58.24 10.976 79.768 29.183l-11.147 0c-19.26-14.022-42.974-22.294-68.621-22.295-64.458 0-116.712 52.254-116.712 116.712 0 64.458 52.254 116.712 116.712 116.712 25.647 0 49.361-8.272 68.621-22.295l11.147 0c-21.528 18.206-49.366 29.183-79.768 29.183-68.262 0-123.6-55.338-123.6-123.6z" fill="#10b981" stroke="transparent" data-fill-palette-color="tertiary"></path></g></svg></g><defs></defs></svg><rect width="395.52" height="247.2" fill="none" stroke="none" visibility="hidden"></rect></g></svg></g></svg>